<?xml version="1.0" encoding="iso-8859-1"?>
<!-- Uploaded to: SVG Repo, www.svgrepo.com, Generator: SVG Repo Mixer Tools -->
<!DOCTYPE svg PUBLIC "-//W3C//DTD SVG 1.1//EN" "http://www.w3.org/Graphics/SVG/1.1/DTD/svg11.dtd">
<svg fill="#000000" height="800px" width="800px" version="1.1" id="Capa_1" xmlns="http://www.w3.org/2000/svg" xmlns:xlink="http://www.w3.org/1999/xlink" 
	 viewBox="0 0 59.571 59.571" xml:space="preserve">
<g>
	<path d="M57.493,0.614c-0.213-0.509-0.8-0.751-1.309-0.535c-0.509,0.214-0.749,0.8-0.535,1.309c0.478,1.14,0.492,2.062,0.041,2.74
		c-0.597,0.899-2.064,1.468-3.859,1.522c-3.54-2.282-7.325-2.119-9.608,0.374c-0.48-0.16-0.99-0.206-1.5-0.129
		c-0.841,0.128-1.568,0.575-2.05,1.261c-0.789,1.125-0.689,2.607,0.125,3.674c-1.403,1.123-2.826,2.467-4.213,4.001
		c-0.079,0.073-7.979,7.359-18.941,9.358c-1.334,0.242-2.381,0.541-3.297,0.939c-0.458,0.2-1.481,0.731-1.503,0.743
		C3.565,29.899,0.007,38.314,2.191,46.334c1.951,7.164,7.985,12.323,15.372,13.145c0.563,0.063,1.133,0.093,1.708,0.093
		c2.578,0,5.252-0.623,7.828-1.833c7-3.287,19.526-12.035,24.82-33.71c0.131-0.334,0.681-1.778,1.168-3.695
		c0.947-0.019,1.87-0.476,2.471-1.332c0.798-1.139,0.699-2.648-0.141-3.719c0.813-1.513,0.963-3.159,0.431-4.807
		c-0.357-1.108-1.009-2.156-1.91-3.103c1.52-0.377,2.736-1.114,3.417-2.138C57.937,4.361,58.432,2.85,57.493,0.614z M50.037,23.349
		l-0.044,0.139c-5.087,20.914-17.059,29.302-23.743,32.44c-2.817,1.323-5.743,1.867-8.465,1.563
		c-6.565-0.729-11.929-5.314-13.663-11.682C2.18,38.681,5.342,31.202,11.79,27.634c0.004-0.002,0.937-0.488,1.356-0.671
		c0.781-0.34,1.662-0.589,2.856-0.807c11.535-2.103,19.61-9.548,20.006-9.923c1.512-1.667,3.014-3.074,4.47-4.19
		c0.005,0.002,0.009,0.002,0.013,0.004c0.487,0.184,0.979,0.275,1.441,0.243c0.005,0.018,0.016,0.035,0.021,0.053
		c0.009,0.028,0.018,0.057,0.028,0.085c0.016,0.045,0.042,0.088,0.06,0.133c0.049,0.121,0.098,0.24,0.162,0.358
		c0.033,0.061,0.074,0.118,0.111,0.178c0.068,0.11,0.135,0.219,0.217,0.325c0.057,0.074,0.124,0.141,0.187,0.212
		c0.075,0.084,0.144,0.169,0.227,0.249c0.155,0.148,0.322,0.287,0.502,0.413c0.177,0.124,0.361,0.232,0.549,0.327
		c0.138,0.07,0.277,0.122,0.416,0.174c0.047,0.017,0.092,0.04,0.139,0.055c0.159,0.053,0.316,0.089,0.475,0.119
		c0.034,0.006,0.068,0.016,0.102,0.022c0.142,0.023,0.281,0.032,0.42,0.036c0.042,0.002,0.085,0.011,0.127,0.011
		c0.044,0.001,0.084-0.002,0.125-0.003c0.017-0.001,0.035,0.003,0.052,0.002c0.01,0.034,0.022,0.069,0.034,0.103
		c0.004,0.011,0.007,0.023,0.011,0.034c0.063,0.18,0.143,0.356,0.239,0.527c0.19,0.341,0.442,0.662,0.742,0.945
		c0.15,0.142,0.312,0.274,0.485,0.395c0.684,0.48,1.474,0.744,2.228,0.744c0.061,0.003,0.117-0.003,0.174-0.005
		c0.003,0.009,0.008,0.018,0.011,0.027c0.012,0.038,0.024,0.076,0.037,0.114c0.019,0.053,0.049,0.104,0.07,0.156
		c0.042,0.102,0.084,0.204,0.137,0.305c0.039,0.073,0.086,0.142,0.13,0.213c0.058,0.093,0.114,0.186,0.182,0.276
		c0.06,0.08,0.129,0.154,0.195,0.23c0.065,0.074,0.126,0.15,0.198,0.221c0.098,0.097,0.207,0.185,0.315,0.273
		c0.048,0.039,0.089,0.083,0.139,0.12C50.662,21.791,50.043,23.332,50.037,23.349z M53.328,14.868
		c-0.317,0.452-0.208,1.075,0.244,1.393c0.542,0.38,0.698,1.095,0.35,1.593c-0.359,0.51-0.976,0.634-1.481,0.305l-0.02-0.014
		c-0.147-0.104-0.27-0.226-0.382-0.352c-0.019-0.022-0.048-0.042-0.066-0.063c-0.113-0.139-0.195-0.288-0.252-0.436
		c-0.027-0.069-0.041-0.132-0.051-0.193c-0.006-0.035-0.019-0.074-0.021-0.106c-0.003-0.084,0.011-0.155,0.044-0.207
		c0.002-0.004,0.001-0.011,0.004-0.014c0.123-0.175,0.182-0.375,0.182-0.573c0-0.315-0.148-0.625-0.426-0.819
		c-0.452-0.318-1.076-0.208-1.392,0.244l-0.001,0c0,0.001,0,0.001-0.001,0.001c-0.021,0.03-0.067,0.048-0.105,0.071
		c-0.025,0.014-0.038,0.035-0.068,0.046c-0.078,0.028-0.175,0.043-0.283,0.044c-0.366,0.007-0.74-0.136-1.089-0.381
		c-0.349-0.245-0.614-0.571-0.728-0.895c-0.036-0.102-0.054-0.198-0.055-0.281c-0.001-0.083,0.016-0.153,0.051-0.202l0,0
		c0,0,0-0.001,0-0.001c0.123-0.175,0.182-0.375,0.182-0.573c0-0.315-0.148-0.625-0.426-0.819c-0.452-0.318-1.076-0.208-1.392,0.244
		l-0.001,0c-0.037,0.054-0.109,0.094-0.198,0.122c-0.028,0.009-0.065,0.009-0.097,0.015c-0.067,0.012-0.14,0.019-0.222,0.016
		c-0.125-0.005-0.255-0.033-0.388-0.072c-0.04-0.012-0.075-0.012-0.117-0.027c-0.178-0.065-0.357-0.155-0.525-0.273
		c-0.159-0.112-0.288-0.235-0.397-0.359c-0.012-0.014-0.027-0.027-0.039-0.041c-0.096-0.115-0.166-0.23-0.221-0.341
		c-0.014-0.028-0.027-0.055-0.039-0.083c-0.033-0.079-0.05-0.151-0.062-0.221c-0.007-0.036-0.02-0.075-0.021-0.108
		c-0.003-0.092,0.009-0.173,0.046-0.226l0,0c0.123-0.175,0.181-0.374,0.181-0.572c0-0.315-0.148-0.625-0.425-0.819
		c-0.452-0.319-1.075-0.207-1.393,0.244l-0.001-0.001c0,0,0,0.001,0,0.001c-0.004,0.005-0.015,0.007-0.019,0.012
		c-0.038,0.045-0.097,0.081-0.174,0.107c-0.062,0.019-0.144,0.024-0.227,0.027c-0.031,0.002-0.057,0.008-0.09,0.007
		c-0.096-0.004-0.206-0.026-0.319-0.054c-0.032-0.008-0.063-0.012-0.096-0.022c-0.112-0.035-0.23-0.09-0.35-0.152
		c-0.091-0.047-0.18-0.08-0.271-0.144c-0.007-0.006-0.015-0.011-0.022-0.016c-0.541-0.38-0.697-1.094-0.348-1.592
		c0.165-0.233,0.417-0.388,0.713-0.433c0.31-0.048,0.632,0.031,0.901,0.22c0.217,0.153,0.489,0.213,0.747,0.167
		c0.261-0.046,0.494-0.193,0.646-0.411c1.994-2.841,5.431-1.937,7.767-0.297c1.43,1.004,2.446,2.262,2.859,3.541
		C54.37,12.407,54.163,13.678,53.328,14.868z"/>
	<path d="M10.57,37.045c0.22-0.506-0.012-1.096-0.518-1.315c-0.506-0.221-1.096,0.011-1.316,0.519
		c-1.944,4.47-1.671,9.677,0.711,13.588c0.188,0.309,0.518,0.479,0.855,0.479c0.177,0,0.357-0.047,0.52-0.146
		c0.471-0.287,0.621-0.902,0.333-1.374C9.105,45.431,8.881,40.929,10.57,37.045z"/>
	<path d="M15.351,29.569c-1.694,0.688-3.236,1.805-4.461,3.227c-0.361,0.418-0.314,1.049,0.104,1.41
		c0.189,0.162,0.421,0.242,0.652,0.242c0.281,0,0.56-0.118,0.758-0.348c1.02-1.183,2.299-2.108,3.701-2.68
		c0.512-0.208,0.757-0.791,0.549-1.303C16.445,29.606,15.862,29.357,15.351,29.569z"/>
</g>
</svg>