<?xml version="1.0" encoding="iso-8859-1"?>
<!-- Uploaded to: SVG Repo, www.svgrepo.com, Generator: SVG Repo Mixer Tools -->
<!DOCTYPE svg PUBLIC "-//W3C//DTD SVG 1.1//EN" "http://www.w3.org/Graphics/SVG/1.1/DTD/svg11.dtd">
<svg fill="#000000" height="800px" width="800px" version="1.1" id="Capa_1" xmlns="http://www.w3.org/2000/svg" xmlns:xlink="http://www.w3.org/1999/xlink" 
	 viewBox="0 0 56.368 56.368" xml:space="preserve">
<path d="M52.568,8.584c-0.648-1.107-1.414-2.172-2.34-3.253l-3.047-4.861c-0.144-0.228-0.372-0.389-0.636-0.446
	c-0.262-0.058-0.537-0.006-0.763,0.142l-2.193,1.446c-0.428,0.282-0.573,0.842-0.336,1.297l2.584,4.964
	c0.042,0.132,0.088,0.266,0.134,0.4c0.163,0.478,0.332,0.971,0.334,1.335c0.06,9.503-7.321,20.197-20.251,29.341
	c-4.887,3.456-8.726,5.934-12.762,7.611c-1.793,0.745-3.611,1.325-5.559,1.772c-1.34,0.308-2.267-0.508-3.246-1.528
	c-0.529-0.551-0.948-0.986-1.571-1.003c-1.494-0.054-2.207,2.06-2.281,3.483c-0.014,0.273,0.084,0.54,0.272,0.738
	c3.998,4.232,9.041,6.347,14.976,6.347c6.29,0,13.579-2.376,21.682-7.123C53.502,39.907,60.233,21.667,52.568,8.584z M14.06,48.407
	c4.207-1.748,8.15-4.29,13.148-7.825c13.041-9.222,20.641-20.097,21.057-30.004c1.842,8.223-1.603,16.813-6.696,22.442
	c-11.71,12.943-22.75,16.283-29.696,16.205C12.609,48.974,13.338,48.707,14.06,48.407z M36.553,47.52
	c-10.24,5.999-24.375,11.074-33.877,1.455c0.057-0.355,0.154-0.677,0.251-0.908c0.041,0.042,0.081,0.083,0.118,0.122
	c0.61,0.636,1.59,1.625,2.947,2.024l-0.005,0.012c0.247,0.097,2.538,0.948,6.311,0.948c6.663,0,17.946-2.656,30.753-16.812
	c6.002-6.634,9.854-17.113,6.435-26.765c0.508,0.662,0.96,1.322,1.355,1.998C57.95,21.726,51.539,38.74,36.553,47.52z"/>
</svg>