<?xml version="1.0" encoding="iso-8859-1"?>
<!-- Uploaded to: SVG Repo, www.svgrepo.com, Generator: SVG Repo Mixer Tools -->
<!DOCTYPE svg PUBLIC "-//W3C//DTD SVG 1.1//EN" "http://www.w3.org/Graphics/SVG/1.1/DTD/svg11.dtd">
<svg fill="#000000" height="800px" width="800px" version="1.1" id="Capa_1" xmlns="http://www.w3.org/2000/svg" xmlns:xlink="http://www.w3.org/1999/xlink" 
	 viewBox="0 0 54 54" xml:space="preserve">
<g>
	<path d="M44.017,45.677c0.186-0.641,0.37-1.282,0.541-1.927c0.151-0.569,0.291-1.14,0.43-1.711c0.119-0.49,0.235-0.981,0.346-1.473
		c0.15-0.668,0.293-1.338,0.427-2.01c0.072-0.362,0.139-0.724,0.206-1.087c0.145-0.778,0.285-1.557,0.408-2.339
		c0.023-0.145,0.041-0.291,0.063-0.436c0.679-4.458,1.022-8.97,0.989-13.515l-0.001-0.146c0-1.654-0.743-2.977-1.894-3.648V12h-5V9
		h-5V5h-5V0h-7v5h-5v4h-5v3h-5v5.344c-1.191,0.657-1.963,2.002-1.963,3.689v0.172c-0.011,4.468,0.334,8.906,0.993,13.293
		c0.034,0.229,0.064,0.46,0.101,0.689c0.118,0.746,0.252,1.488,0.389,2.231c0.074,0.404,0.149,0.807,0.229,1.209
		c0.13,0.649,0.267,1.296,0.411,1.942c0.115,0.518,0.237,1.034,0.362,1.549c0.135,0.557,0.271,1.115,0.417,1.67
		c0.173,0.658,0.359,1.312,0.548,1.965c0.123,0.427,0.24,0.856,0.369,1.281c0.333,1.095,0.684,2.185,1.06,3.266l0.294,0.846
		l0.019-0.004C12.429,52.757,14.226,54,15.968,54h22.061c2.112,0,3.904-1.415,4.445-3.415l0.048-0.034l0.055-0.331
		c0.378-1.076,0.73-2.16,1.065-3.249C43.773,46.542,43.892,46.109,44.017,45.677z M44.505,34.093
		c-0.031,0.209-0.059,0.419-0.091,0.628c-0.114,0.733-0.243,1.463-0.376,2.192c-0.068,0.37-0.138,0.739-0.21,1.108
		c-0.127,0.646-0.26,1.29-0.402,1.932c-0.111,0.498-0.231,0.995-0.351,1.491c-0.129,0.535-0.254,1.072-0.394,1.604
		c-0.268,1.02-0.551,2.037-0.859,3.049c-0.065,0.213-0.139,0.423-0.205,0.636c-0.225,0.719-0.462,1.434-0.706,2.148
		c-0.343-0.064-0.774-0.148-1.199-0.231C36.768,48.073,31.291,47,27.033,47c-4.963,0-11.583,1.298-13.968,1.802
		c-0.22-0.653-0.434-1.308-0.638-1.965c-0.08-0.258-0.167-0.513-0.245-0.771c-0.305-1.017-0.587-2.039-0.854-3.064
		c-0.13-0.502-0.246-1.009-0.367-1.513c-0.128-0.532-0.256-1.065-0.374-1.599c-0.135-0.617-0.261-1.237-0.383-1.857
		c-0.08-0.404-0.156-0.809-0.23-1.214c-0.126-0.695-0.248-1.39-0.357-2.088c-0.043-0.277-0.081-0.555-0.122-0.833
		c-0.391-2.675-0.662-5.372-0.8-8.085c-0.003-0.057-0.008-0.114-0.01-0.172c0.134-0.483,0.516-1.341,1.538-1.341h2.859
		c1.326,0,2.568,0.638,3.322,1.705c2.234,3.162,7.237,5.12,10.591,5.12c3.356,0,8.362-1.958,10.596-5.12
		c0.754-1.067,1.996-1.705,3.322-1.705h2.859c1.065,0,1.437,0.954,1.552,1.393c-0.002,0.032-0.004,0.065-0.006,0.097
		C45.187,28.576,44.911,31.347,44.505,34.093z M8.57,21.208v-0.175c0-0.884,0.387-1.823,1.22-2.067h0
		c0.163-0.044,0.304-0.064,0.434-0.064h2.859c0.373,0,0.764,0.061,1.163,0.181l0.004,0.001c0.876,0.266,1.653,0.822,2.186,1.566
		v0.001c0.016,0.023,0.035,0.04,0.052,0.062c0.548,0.749,1.247,1.43,2.046,2.03v0.015l0.432,0.298
		c0.033,0.023,0.069,0.042,0.102,0.064c1.359,0.918,2.932,1.622,4.466,2.065v0.024l0.773,0.18c0.027,0.006,0.051,0.008,0.078,0.014
		c0.445,0.102,0.883,0.182,1.305,0.236c0.021,0.003,0.04,0.003,0.06,0.006c0.433,0.053,0.852,0.082,1.246,0.082
		c0.413,0,0.852-0.03,1.308-0.088c0.014-0.002,0.029-0.004,0.043-0.006c0.455-0.06,0.925-0.146,1.404-0.261
		c0.005-0.001,0.009-0.001,0.014-0.003l0.768-0.183v-0.024c1.533-0.45,3.1-1.16,4.451-2.083c0.04-0.027,0.082-0.05,0.122-0.078
		l0.426-0.299v-0.016c0.777-0.593,1.459-1.261,1.994-1.996c0.011-0.015,0.024-0.026,0.034-0.041
		c0.549-0.765,1.347-1.328,2.247-1.585c0.377-0.108,0.75-0.163,1.106-0.163h2.859c0.136,0,0.287,0.026,0.472,0.08
		c0.805,0.263,1.181,1.183,1.181,2.058l0.001,0.152c0.004,0.506-0.016,1.01-0.022,1.516c-0.487-0.26-1.036-0.41-1.632-0.41h-2.859
		c-1.975,0-3.827,0.954-4.956,2.551c-1.806,2.557-6.092,4.274-8.962,4.274c-2.868,0-7.151-1.718-8.957-4.274
		c-1.129-1.598-2.981-2.551-4.956-2.551h-2.859c-0.592,0-1.139,0.149-1.626,0.408C8.591,22.207,8.569,21.708,8.57,21.208z
		 M43.533,14v2.901h-2.619c-0.126,0-0.253,0.004-0.381,0.013V14H43.533z M38.533,11v1v5.395c-1.022,0.433-1.922,1.133-2.575,2.057
		c-0.017,0.023-0.037,0.045-0.054,0.069c-0.114,0.154-0.236,0.3-0.372,0.436V11H38.533z M33.533,7v2v12.636
		c-0.906,0.527-1.949,0.838-3,1.098V7H33.533z M25.533,2h3v3v18.582c-0.252,0.043-0.49,0.075-0.723,0.098
		c-0.027,0.003-0.055,0.006-0.082,0.008c-0.477,0.044-0.929,0.046-1.406,0.006c-0.021-0.002-0.042-0.004-0.062-0.006
		c-0.234-0.022-0.474-0.052-0.727-0.094V5V2z M20.533,7h3v15.743c-1.048-0.25-2.091-0.546-3-1.064V9V7z M15.533,11h3v9.017
		c-0.168-0.157-0.318-0.326-0.452-0.511c-0.013-0.018-0.029-0.035-0.042-0.054c-0.639-0.904-1.513-1.592-2.506-2.027V12V11z
		 M10.533,14h3v2.92c-0.151-0.013-0.301-0.019-0.45-0.019h-2.55V14z M38.029,52H15.968c-0.816,0-1.74-0.573-2.199-1.3
		c2.525-0.522,8.719-1.7,13.264-1.7c4.063,0,9.417,1.049,12.293,1.612c0.356,0.07,0.646,0.126,0.907,0.176
		C39.764,51.523,38.951,52,38.029,52z"/>
	<path d="M27.533,33c-4.411,0-8,2.691-8,6s3.589,6,8,6s8-2.691,8-6S31.944,33,27.533,33z M27.533,43c-3.252,0-6-1.832-6-4
		s2.748-4,6-4s6,1.832,6,4S30.786,43,27.533,43z"/>
</g>
</svg>