<?xml version="1.0" encoding="iso-8859-1"?>
<!-- Uploaded to: SVG Repo, www.svgrepo.com, Generator: SVG Repo Mixer Tools -->
<!DOCTYPE svg PUBLIC "-//W3C//DTD SVG 1.1//EN" "http://www.w3.org/Graphics/SVG/1.1/DTD/svg11.dtd">
<svg fill="#000000" height="800px" width="800px" version="1.1" id="Capa_1" xmlns="http://www.w3.org/2000/svg" xmlns:xlink="http://www.w3.org/1999/xlink" 
	 viewBox="0 0 58.949 58.949" xml:space="preserve">
<g>
	<path d="M5,25.571v-1.414c0-0.553-0.448-1-1-1s-1,0.447-1,1v1.414c0,0.553,0.448,1,1,1S5,26.124,5,25.571z"/>
	<path d="M6.044,31.1c-0.436-0.337-1.064-0.257-1.403,0.18l-0.865,1.119c-0.338,0.437-0.257,1.064,0.179,1.402
		c0.182,0.141,0.397,0.209,0.611,0.209c0.299,0,0.595-0.134,0.792-0.389l0.865-1.119C6.562,32.066,6.481,31.438,6.044,31.1z"/>
	<path d="M7.209,41.427l-0.865,1.118c-0.338,0.438-0.258,1.065,0.179,1.403c0.182,0.141,0.397,0.209,0.611,0.209
		c0.299,0,0.594-0.134,0.792-0.388l0.865-1.118c0.338-0.438,0.258-1.065-0.179-1.403C8.176,40.911,7.548,40.992,7.209,41.427z"/>
	<path d="M19.227,43.666l-1.408-0.128c-0.551-0.044-1.036,0.356-1.086,0.905c-0.05,0.551,0.355,1.037,0.906,1.087l1.408,0.128
		c0.031,0.003,0.061,0.004,0.091,0.004c0.512,0,0.948-0.391,0.995-0.909C20.183,44.202,19.777,43.716,19.227,43.666z"/>
	<path d="M43.448,43.015c-0.281-0.475-0.894-0.633-1.37-0.352c-0.476,0.28-0.633,0.894-0.352,1.369l0.234,0.396
		c0.187,0.315,0.52,0.491,0.862,0.491c0.173,0,0.348-0.045,0.508-0.14c0.476-0.28,0.633-0.894,0.352-1.369L43.448,43.015z"/>
	<path d="M30.86,43.648c-0.282-0.475-0.896-0.632-1.37-0.351c-0.475,0.282-0.632,0.896-0.351,1.37l0.234,0.395
		c0.187,0.315,0.52,0.49,0.861,0.49c0.173,0,0.349-0.045,0.509-0.14c0.475-0.282,0.632-0.896,0.351-1.37L30.86,43.648z"/>
	<path d="M29.86,20.648c-0.282-0.476-0.896-0.632-1.37-0.351c-0.475,0.282-0.632,0.896-0.351,1.37l0.234,0.395
		c0.187,0.315,0.52,0.49,0.861,0.49c0.173,0,0.349-0.045,0.509-0.14c0.475-0.282,0.632-0.896,0.351-1.37L29.86,20.648z"/>
	<path d="M22.14,15.667c0.187,0.315,0.52,0.49,0.861,0.49c0.173,0,0.349-0.045,0.509-0.14c0.475-0.282,0.632-0.896,0.351-1.37
		l-0.234-0.395c-0.282-0.476-0.896-0.632-1.37-0.351c-0.475,0.282-0.632,0.896-0.351,1.37L22.14,15.667z"/>
	<path d="M11.262,17.022c0.159,0.093,0.333,0.137,0.504,0.137c0.344,0,0.678-0.177,0.864-0.495l0.232-0.396
		c0.279-0.477,0.118-1.089-0.358-1.368c-0.478-0.279-1.089-0.119-1.368,0.358l-0.232,0.396
		C10.625,16.13,10.786,16.742,11.262,17.022z"/>
	<path d="M19.86,29.648c-0.281-0.475-0.896-0.632-1.37-0.351c-0.475,0.282-0.632,0.896-0.351,1.37l0.234,0.395
		c0.187,0.315,0.52,0.49,0.861,0.49c0.173,0,0.349-0.045,0.509-0.14c0.475-0.282,0.632-0.896,0.351-1.37L19.86,29.648z"/>
	<path d="M13.209,35.775c-0.533-0.149-1.083,0.166-1.229,0.699l-0.122,0.442c-0.146,0.532,0.167,1.083,0.699,1.229
		c0.089,0.024,0.178,0.036,0.266,0.036c0.439,0,0.842-0.291,0.964-0.735l0.122-0.442C14.055,36.471,13.741,35.92,13.209,35.775z"/>
	<path d="M24.265,24.751c-0.534-0.148-1.083,0.166-1.229,0.699l-0.122,0.442c-0.146,0.532,0.167,1.083,0.699,1.229
		c0.089,0.024,0.178,0.036,0.266,0.036c0.439,0,0.842-0.291,0.964-0.735l0.122-0.442C25.111,25.447,24.797,24.897,24.265,24.751z"/>
	<path d="M36.387,25.194c-0.532-0.146-1.083,0.166-1.229,0.699l-0.122,0.442c-0.146,0.532,0.167,1.083,0.699,1.229
		C35.824,27.588,35.913,27.6,36,27.6c0.439,0,0.842-0.291,0.964-0.735l0.122-0.442C37.232,25.89,36.919,25.339,36.387,25.194z"/>
	<path d="M42.6,31.968l-0.388,0.245c-0.467,0.295-0.607,0.913-0.312,1.38c0.19,0.301,0.515,0.466,0.847,0.466
		c0.183,0,0.367-0.05,0.533-0.154l0.388-0.245c0.467-0.295,0.607-0.913,0.312-1.38C43.685,31.814,43.067,31.674,42.6,31.968z"/>
	<path d="M50.192,38.942l-0.458-0.011c-0.576-0.036-1.01,0.425-1.023,0.977c-0.013,0.552,0.424,1.01,0.976,1.023l0.458,0.011
		c0.008,0,0.016,0,0.024,0c0.542,0,0.986-0.433,0.999-0.977C51.181,39.413,50.744,38.955,50.192,38.942z"/>
	<path d="M54.902,30.388c-0.325-0.444-0.951-0.544-1.397-0.218c-0.446,0.325-0.544,0.951-0.218,1.397l0.27,0.37
		c0.195,0.268,0.5,0.41,0.809,0.41c0.204,0,0.411-0.063,0.588-0.192c0.446-0.325,0.544-0.951,0.219-1.397L54.902,30.388z"/>
	<path d="M53.191,24.374l0.27,0.371c0.196,0.27,0.5,0.412,0.81,0.412c0.204,0,0.41-0.063,0.587-0.191
		c0.447-0.325,0.545-0.95,0.22-1.396l-0.27-0.371c-0.325-0.447-0.95-0.545-1.397-0.221C52.965,23.303,52.867,23.928,53.191,24.374z"
		/>
	<path d="M48.482,15.168l-0.458-0.011c-0.548-0.021-1.01,0.424-1.023,0.977c-0.013,0.552,0.424,1.01,0.976,1.023l0.458,0.011
		c0.008,0,0.016,0,0.024,0c0.542,0,0.986-0.433,0.999-0.977C49.471,15.64,49.034,15.182,48.482,15.168z"/>
	<path d="M38.225,13.183c-0.54-0.125-1.075,0.211-1.199,0.75l-0.103,0.447c-0.124,0.538,0.212,1.075,0.75,1.199
		c0.076,0.018,0.151,0.025,0.226,0.025c0.455,0,0.867-0.313,0.974-0.775l0.103-0.447C39.099,13.844,38.763,13.307,38.225,13.183z"/>
	<path d="M55.733,18.475c-2.759-3.99-6.916-6.723-11.119-7.308c-0.225-0.031-0.477-0.071-0.752-0.114
		c-2.958-0.463-8.469-1.327-12.569,2.397l-1.388,1.388l-0.74-0.552c-2.528-1.889-5.405-3.08-8.319-3.445
		c-2.193-0.273-4.128-0.064-6.358,0.332C5.958,12.693,0,19.677,0,28.157c0,4.471,1.518,8.819,4.291,12.341l-1.33,1.334
		c-1.092,1.113-1.363,2.739-0.792,4.121c0.19,0.461,0.474,0.894,0.853,1.273c0.709,0.71,1.651,1.1,2.651,1.1h0
		c0.006,0,0.012,0,0.018,0c0,0,0,0,0,0c0.655-0.003,1.275-0.189,1.827-0.504c0.297-0.17,0.581-0.366,0.826-0.616l0.334-0.333
		l1.388-1.383c3.035,1.748,6.452,2.668,9.933,2.668h18.108c4.001,0,7.874-1.124,11.266-3.233l2.279,2.28l0.007,0.007
		c0.734,0.721,1.691,1.084,2.654,1.084c0.984,0,1.974-0.38,2.739-1.145c0.714-0.714,1.105-1.663,1.101-2.671
		c-0.005-1.007-0.406-1.952-1.122-2.654l-2.023-2.023c1.714-2.268,2.9-4.798,3.519-7.536C59.601,27.53,58.608,22.633,55.733,18.475z
		 M2,28.157c0-7.494,5.279-13.669,12.838-15.016c2.491-0.444,4.051-0.529,5.759-0.316c2.571,0.322,5.12,1.381,7.371,3.063l0.51,0.38
		l-2.544,2.549c-3.781-2.974-8.791-3.501-13.167-1.347c-4.354,2.143-6.942,6.449-6.756,11.241c0.014,0.354,0.041,0.711,0.082,1.068
		c0.263,2.315,1.123,4.514,2.497,6.413L5.728,39.06C3.326,35.925,2,32.098,2,28.157z M10.006,34.736
		c-1.055-1.554-1.716-3.325-1.926-5.182c-0.035-0.31-0.059-0.618-0.071-0.922c-0.154-3.989,2.007-7.579,5.642-9.367
		c1.507-0.742,3.104-1.106,4.682-1.106c2.191,0,4.346,0.703,6.176,2.075L10.006,34.736z M38.108,46.157H20
		c-2.95,0-5.849-0.738-8.46-2.139l3.017-3.01c0.1,0.056,0.2,0.105,0.302,0.164c1.558,0.885,3.496,1.985,8.141,1.985h13
		c4.687,0,7.25-1.421,9.118-2.489l2.811,2.812C44.95,45.235,41.579,46.157,38.108,46.157z M36,41.157H23
		c-3.938,0-5.585-0.839-6.967-1.619l0.456-0.456l0.217-0.217l0,0l13.297-13.313L43.65,39.2C41.907,40.176,39.814,41.157,36,41.157z
		 M56.154,44.489c0.002,0.47-0.181,0.913-0.568,1.301c-0.687,0.688-1.816,0.686-2.521-0.004l-1.98-1.98l-5.625-5.625L31.416,24.137
		l2.549-2.552l14.23,14.23h0l5.554,5.554l0,0l1.877,1.877C55.964,43.578,56.152,44.02,56.154,44.489z M35.395,20.187
		c2.415-2.234,5.722-2.811,9.039-1.489c3.396,1.354,6.741,4.943,6.557,9.913c-0.011,0.313-0.035,0.627-0.071,0.944
		c-0.182,1.609-0.733,3.167-1.577,4.581L35.395,20.187z M56.578,31.825c-0.536,2.37-1.541,4.569-2.993,6.552l-2.776-2.776
		c1.144-1.767,1.866-3.762,2.099-5.819c0.042-0.369,0.069-0.734,0.083-1.097c0.22-5.943-3.767-10.231-7.815-11.845
		c-4.045-1.61-8.251-0.86-11.209,1.918l-0.001-0.001l-5.379,5.379l0.003,0.002L14.532,38.21l-7.606,7.587
		c-0.332,0.338-0.774,0.526-1.244,0.528c-0.47-0.008-0.912-0.18-1.3-0.568c-0.687-0.688-0.684-1.819,0.001-2.519l0.529-0.531
		l26.796-26.844h0l0.965-0.966c3.356-3.048,8.25-2.281,10.88-1.869c0.288,0.045,0.551,0.087,0.786,0.119
		c3.659,0.51,7.304,2.927,9.75,6.465C56.641,23.304,57.525,27.642,56.578,31.825z"/>
</g>
</svg>