<?xml version="1.0" encoding="iso-8859-1"?>
<!-- Uploaded to: SVG Repo, www.svgrepo.com, Generator: SVG Repo Mixer Tools -->
<!DOCTYPE svg PUBLIC "-//W3C//DTD SVG 1.1//EN" "http://www.w3.org/Graphics/SVG/1.1/DTD/svg11.dtd">
<svg fill="#000000" height="800px" width="800px" version="1.1" id="Capa_1" xmlns="http://www.w3.org/2000/svg" xmlns:xlink="http://www.w3.org/1999/xlink" 
	 viewBox="0 0 59.092 59.092" xml:space="preserve">
<path d="M57.955,14.36c-0.446-0.355-0.972-0.5-1.502-0.423c-0.13-0.012-0.377-0.259-0.39-0.37l0.103-0.719
	c0.095-0.658-0.173-1.376-0.716-1.918c-0.543-0.543-1.26-0.814-1.918-0.717l-0.701,0.102c-0.13-0.012-0.377-0.258-0.39-0.37
	l0.103-0.719c0.095-0.658-0.173-1.376-0.716-1.918c-0.543-0.544-1.259-0.817-1.918-0.717l-0.701,0.102
	c-0.13-0.012-0.377-0.258-0.39-0.37l0.103-0.719c0.095-0.658-0.173-1.376-0.716-1.918c-0.543-0.544-1.262-0.813-1.918-0.717
	l-0.701,0.102c-0.13-0.012-0.377-0.258-0.39-0.37l0.018-0.126c0.077-0.534-0.064-1.047-0.409-1.481
	c-0.556-0.701-1.508-1.018-2.213-1.08c-0.908-0.081-1.749,0.204-2.436,0.823c-0.776,0.699-1.219,1.732-1.381,2.318
	c-0.478,0.84-3.098,5.738-4.17,13.546l-1.595-1.595c-1.749-1.748-4.475-1.914-6.427-0.526l-0.051-0.068l-0.593,0.594l0,0
	L15.107,25.941c-1.949,1.949-1.949,5.121,0,7.07l1.134,1.134c-3.04,0.326-8.592,1.355-13.205,4.62
	c-2.022,0.733-3.146,2.102-3.011,3.678c0.063,0.729,0.388,1.713,1.112,2.289c0.445,0.354,0.97,0.501,1.502,0.423
	c0.13,0.012,0.377,0.258,0.39,0.37l-0.103,0.719C2.832,46.903,3.1,47.62,3.643,48.163c0.542,0.543,1.26,0.803,1.919,0.716
	l0.698-0.103c0.13,0.012,0.378,0.259,0.391,0.371l-0.103,0.718c-0.094,0.658,0.173,1.375,0.716,1.918
	c0.542,0.544,1.262,0.806,1.92,0.718l0.698-0.103c0.13,0.012,0.378,0.259,0.391,0.371l-0.103,0.718
	c-0.095,0.658,0.173,1.375,0.715,1.918c0.543,0.543,1.26,0.81,1.92,0.718l0.7-0.103c0.13,0.012,0.377,0.258,0.39,0.37l-0.018,0.126
	c-0.077,0.535,0.065,1.048,0.409,1.482c0.556,0.7,1.507,1.017,2.212,1.079c0.101,0.009,0.2,0.014,0.299,0.014
	c0.783,0,1.509-0.279,2.115-0.816c0.816-0.724,1.246-1.767,1.403-2.338c0.477-0.839,3.097-5.738,4.169-13.548l1.456,1.456
	c0.975,0.975,2.255,1.462,3.535,1.462c1.281,0,2.561-0.487,3.536-1.462l0.017-0.017l0,0l8.759-8.759l0,0l2.058-2.058
	c1.949-1.949,1.949-5.121,0-7.07l-0.995-0.995c3.039-0.326,8.592-1.355,13.206-4.62c2.023-0.73,3.146-2.099,3.011-3.677
	C59.005,15.92,58.68,14.936,57.955,14.36z M33.253,40.776L20.41,23.466l4.65-4.651l1.249-1.25l12.843,17.311L33.253,40.776z
	 M18.528,55.034l-0.132,0.223l-0.005,0.146c-0.099,0.339-0.589,1.755-1.716,1.684c-0.416-0.037-0.772-0.241-0.818-0.286l0.018-0.126
	c0.095-0.658-0.173-1.376-0.716-1.918c-0.471-0.472-1.073-0.735-1.655-0.735c-0.089,0-0.177,0.007-0.265,0.019l-0.699,0.103
	c-0.13-0.012-0.377-0.259-0.391-0.371l0.103-0.718c0.094-0.658-0.173-1.375-0.716-1.918s-1.261-0.809-1.92-0.718l-0.698,0.103
	c-0.13-0.012-0.378-0.259-0.391-0.371l0.103-0.718c0.094-0.658-0.173-1.375-0.716-1.918s-1.259-0.807-1.92-0.718l-0.699,0.103
	c-0.13-0.012-0.377-0.259-0.39-0.37l0.103-0.719c0.095-0.658-0.173-1.375-0.716-1.918C3.75,43.348,3.033,43.082,2.4,43.18
	c-0.112-0.054-0.343-0.439-0.383-0.907c-0.083-0.961,1.468-1.547,1.78-1.655l0.172-0.06l0.117-0.085
	c5.298-3.806,12.271-4.381,14.015-4.466l1.107,1.107c-0.113,0.059-0.218,0.138-0.305,0.242c-1.274,1.507-2.134,1.537-3.845,1.596
	c-0.611,0.021-1.304,0.046-2.104,0.146c-0.548,0.068-0.937,0.568-0.868,1.116c0.063,0.506,0.494,0.876,0.991,0.876
	c0.042,0,0.083-0.003,0.125-0.008c0.711-0.089,1.328-0.11,1.925-0.131c0.773-0.027,1.502-0.062,2.223-0.24
	c-1.744,2.323-2.644,5.466-2.264,8.503c0.063,0.506,0.494,0.876,0.991,0.876c0.042,0,0.083-0.003,0.125-0.008
	c0.548-0.068,0.937-0.568,0.868-1.116c-0.452-3.612,1.348-7.534,4.185-9.121c0.149-0.084,0.257-0.206,0.343-0.341l1.094,1.094
	C21.767,49.497,18.561,54.978,18.528,55.034z M31.597,42.431c-1.17,1.169-3.073,1.17-4.243,0l-2.582-2.582l-5.86-5.86l-2.392-2.392
	c-1.169-1.17-1.169-3.072,0-4.242l2.459-2.46l12.844,17.31L31.597,42.431z M42.431,31.597l-1.849,1.849L27.772,16.18
	c0.511-0.354,1.106-0.537,1.705-0.537c0.768,0,1.536,0.292,2.121,0.877l2.721,2.721v0l1.401,1.401l6.712,6.712
	c0.563,0.563,0.874,1.316,0.874,2.121S42.995,31.034,42.431,31.597z M55.293,18.474l-0.287,0.144
	C49.708,22.426,42.733,23,40.99,23.085l-1.086-1.086c0.13-0.059,0.25-0.147,0.349-0.264c1.274-1.508,2.133-1.537,3.844-1.596
	c0.612-0.021,1.305-0.045,2.105-0.146c0.548-0.068,0.937-0.568,0.868-1.116s-0.576-0.93-1.116-0.868
	c-0.711,0.089-1.329,0.11-1.926,0.131c-0.773,0.026-1.501,0.061-2.222,0.24c1.744-2.323,2.644-5.466,2.264-8.502
	c-0.068-0.549-0.577-0.932-1.116-0.868c-0.548,0.068-0.937,0.568-0.868,1.116c0.451,3.612-1.348,7.533-4.185,9.121
	c-0.165,0.093-0.278,0.232-0.365,0.385L36.4,18.494c0.925-8.899,4.131-14.38,4.164-14.436L40.7,3.829l0.002-0.144
	c0.104-0.345,0.613-1.769,1.714-1.68c0.415,0.037,0.772,0.241,0.818,0.286l-0.018,0.126c-0.095,0.658,0.173,1.376,0.716,1.918
	c0.542,0.543,1.258,0.809,1.918,0.717l0.701-0.102c0.13,0.012,0.377,0.258,0.39,0.37L46.839,6.04
	c-0.095,0.658,0.173,1.376,0.716,1.918c0.543,0.544,1.26,0.812,1.918,0.717l0.701-0.102c0.13,0.012,0.377,0.258,0.39,0.37
	l-0.103,0.719c-0.095,0.658,0.173,1.376,0.716,1.918c0.543,0.543,1.259,0.814,1.918,0.717l0.701-0.102
	c0.13,0.012,0.377,0.258,0.39,0.37l-0.103,0.719c-0.094,0.659,0.174,1.376,0.717,1.919c0.543,0.542,1.263,0.808,1.892,0.71
	c0.112,0.054,0.343,0.438,0.382,0.907C57.157,17.783,55.605,18.367,55.293,18.474z"/>
</svg>