<svg width="250" height="250" viewBox="0 0 250 250" xmlns="http://www.w3.org/2000/svg">
  <!-- Handy/Tablet Icon as background -->
  <g transform="translate(125, 125) scale(8)">
    <path d="M12 16C13.6569 16 15 14.6569 15 13C15 11.3431 13.6569 10 12 10C10.3431 10 9 11.3431 9 13C9 14.6569 10.3431 16 12 16Z" stroke="currentColor" stroke-width="1.5" stroke-linecap="round" stroke-linejoin="round" fill="currentColor" opacity="0.9"/>
    <path d="M3 16.8V9.2C3 8.0799 3 7.51984 3.21799 7.09202C3.40973 6.71569 3.71569 6.40973 4.09202 6.21799C4.51984 6 5.0799 6 6.2 6H7.25464C7.37758 6 7.43905 6 7.49576 5.9935C7.79166 5.95961 8.05705 5.79559 8.21969 5.54609C8.25086 5.49827 8.27836 5.44328 8.33333 5.33333C8.44329 5.11342 8.49827 5.00346 8.56062 4.90782C8.8859 4.40882 9.41668 4.08078 10.0085 4.01299C10.1219 4 10.2448 4 10.4907 4H13.5093C13.7552 4 13.8781 4 13.9915 4.01299C14.5833 4.08078 15.1141 4.40882 15.4394 4.90782C15.5017 5.00345 15.5567 5.11345 15.6667 5.33333C15.7216 5.44329 15.7491 5.49827 15.7803 5.54609C15.943 5.79559 16.2083 5.95961 16.5042 5.9935C16.561 6 16.6224 6 16.7454 6H17.8C18.9201 6 19.4802 6 19.908 6.21799C20.2843 6.40973 20.5903 6.71569 20.782 7.09202C21 7.51984 21 8.0799 21 9.2V16.8C21 17.9201 21 18.4802 20.782 18.908C20.5903 19.2843 20.2843 19.5903 19.908 19.782C19.4802 20 18.9201 20 17.8 20H6.2C5.0799 20 4.51984 20 4.09202 19.782C3.71569 19.5903 3.40973 19.2843 3.21799 18.908C3 18.4802 3 17.9201 3 16.8Z" stroke="currentColor" stroke-width="1.5" stroke-linecap="round" stroke-linejoin="round" fill="none" opacity="0.7"/>
  </g>
  
  <!-- Routing Path and Pins centered -->
  <g transform="translate(125, 125) scale(0.8) translate(-150, -150)">
    <path d="M167.631,101.102H49.574c-16.216,0-29.408-13.199-29.408-29.422c0-16.211,13.192-29.399,29.408-29.399h73.789
      c4.143,0,7.5-3.358,7.5-7.5c0-4.142-3.357-7.5-7.5-7.5H49.574c-24.486,0-44.408,19.917-44.408,44.399
      c0,24.494,19.922,44.422,44.408,44.422h118.057c16.216,0,29.408,13.199,29.408,29.423c0,16.211-13.192,29.399-29.408,29.399H93.205
      c-4.142,0-7.5,3.358-7.5,7.5s3.358,7.5,7.5,7.5h74.426c24.486,0,44.408-19.917,44.408-44.399
      C212.039,121.03,192.117,101.102,167.631,101.102z" fill="currentColor" opacity="0.9"/>
    <path d="M48.516,130.001c-17.407,0-31.568,14.162-31.568,31.568c0,26.865,25.192,52.367,26.265,53.439
      c1.407,1.407,3.314,2.197,5.304,2.197c1.989,0,3.897-0.79,5.304-2.197c1.072-1.073,26.263-26.574,26.263-53.439
      C80.082,144.163,65.922,130.001,48.516,130.001z M48.516,198.357c-6.477-7.995-16.568-22.713-16.568-36.788
      c0-9.136,7.433-16.568,16.568-16.568c9.135,0,16.566,7.433,16.566,16.568C65.082,175.644,54.991,190.362,48.516,198.357z" fill="currentColor"/>
    <path d="M168.053,87.202c1.919,0,3.838-0.732,5.302-2.195c1.073-1.072,26.278-26.573,26.278-53.44
      C199.633,14.161,185.466,0,168.053,0c-17.407,0-31.568,14.161-31.568,31.566c0,26.866,25.192,52.367,26.266,53.439
      C164.214,86.47,166.133,87.202,168.053,87.202z M168.053,15c9.143,0,16.58,7.432,16.58,16.566c0,14.076-10.1,28.796-16.579,36.79
      c-6.476-7.994-16.569-22.713-16.569-36.79C151.484,22.432,158.917,15,168.053,15z" fill="currentColor"/>
  </g>
</svg>


